<?xml version="1.0" encoding="UTF-8"?>
<svg id="Layer_2" data-name="Layer 2" xmlns="http://www.w3.org/2000/svg" viewBox="0 0 248.65 237.73">
  <defs>
    <style>
      .cls-1 {
        fill: #fff;
      }

      .cls-2 {
        fill: #99f3df;
      }

      .cls-3 {
        fill: #d7a5f0;
      }

      .cls-4 {
        fill: #e55a22;
      }

      .cls-5 {
        fill: #e4d73d;
      }

      .cls-6 {
        fill: none;
        stroke: #000;
        stroke-miterlimit: 10;
        stroke-width: .5px;
      }
    </style>
  </defs>
  <g id="Layer_1-2" data-name="Layer 1">
    <path class="cls-5" d="m202.29,86.5c-2.53,28.23-19.9,52.18-44.25,64-2.35-23.66-15.13-44.26-33.68-57.12,12.77-8.86,28.28-14.05,44.99-14.05,11.75,0,22.91,2.56,32.94,7.17Z"/>
    <path class="cls-3" d="m124.36,93.38c-18.75,12.98-31.6,33.87-33.75,57.85-24.95-11.44-42.92-35.49-45.75-64,10.42-5.06,22.13-7.9,34.49-7.9,16.72,0,32.23,5.19,45.01,14.05Z"/>
    <path class="cls-4" d="m158.04,150.5c-10.43,5.06-22.13,7.9-34.5,7.9s-22.91-2.56-32.93-7.17c2.15-23.98,15-44.87,33.75-57.85,18.55,12.86,31.33,33.46,33.68,57.12Z"/>
    <path class="cls-2" d="m158.43,158.4c0,26.95-13.48,50.75-34.07,65.03-20.6-14.27-34.08-38.08-34.08-65.03,0-2.42.11-4.81.33-7.17,10.02,4.61,21.17,7.17,32.93,7.17,12.37,0,24.07-2.84,34.5-7.9.26,2.6.39,5.23.39,7.9Z"/>
    <g>
      <circle class="cls-6" cx="123.52" cy="79.33" r="79.08"/>
      <circle class="cls-6" cx="169.32" cy="158.4" r="79.08"/>
      <circle class="cls-6" cx="79.33" cy="158.4" r="79.08"/>
    </g>
    <g>
      <path d="m98.01,43.28c.86,0,1.6.14,2.21.42.61.28,1.07.68,1.39,1.2.32.52.48,1.16.48,1.9s-.16,1.38-.48,1.9c-.32.52-.78.92-1.39,1.2-.61.28-1.34.42-2.21.42h-2.1v3.52h-2.75v-10.56h4.85Zm-.43,4.98c.58,0,1.01-.12,1.3-.36.29-.24.44-.61.44-1.1s-.15-.86-.44-1.1c-.29-.24-.73-.36-1.3-.36h-1.66v2.91h1.66Z"/>
      <path d="m103.65,53.84v-8h2.4l.11,1.73c.2-.6.5-1.06.9-1.39.4-.33.91-.5,1.53-.5.2,0,.38.02.52.05.14.03.26.07.34.13l-.27,2.24c-.11-.04-.24-.08-.41-.1-.17-.03-.37-.04-.6-.04-.32,0-.62.07-.9.21s-.5.34-.66.62c-.17.27-.25.62-.25,1.03v4.03h-2.72Z"/>
      <path d="m114.25,45.68c.84,0,1.58.16,2.22.49s1.13.8,1.49,1.42.54,1.37.54,2.25-.18,1.62-.54,2.25-.85,1.1-1.49,1.42c-.63.33-1.37.49-2.22.49s-1.55-.16-2.19-.49c-.64-.33-1.14-.8-1.5-1.42s-.54-1.37-.54-2.25.18-1.62.54-2.25.86-1.1,1.5-1.42c.64-.33,1.37-.49,2.19-.49Zm0,1.94c-.31,0-.58.07-.8.22-.22.15-.4.39-.51.72s-.18.76-.18,1.28.06.95.18,1.27c.12.33.29.57.51.72.22.15.49.23.8.23s.59-.08.82-.23c.22-.15.39-.39.51-.72.12-.33.18-.75.18-1.27s-.06-.95-.18-1.28c-.12-.33-.29-.57-.51-.72-.22-.15-.5-.22-.82-.22Z"/>
      <path d="m122.97,54c-.66,0-1.24-.16-1.74-.49-.5-.33-.88-.8-1.15-1.42-.27-.62-.41-1.36-.41-2.22s.14-1.65.42-2.27c.28-.62.68-1.09,1.18-1.42.51-.33,1.09-.5,1.75-.5.72,0,1.31.22,1.75.66.44.44.73,1.01.86,1.69l-.26.34v-5.92h2.72v11.39h-2.43l-.18-2.72.32.24c-.06.53-.23,1-.49,1.39-.26.39-.59.7-.99.92-.4.22-.86.33-1.37.33Zm.94-2c.31,0,.57-.08.79-.25.22-.17.39-.41.5-.74s.18-.74.18-1.22c0-.45-.06-.83-.17-1.14s-.28-.55-.5-.72c-.22-.17-.48-.25-.79-.25-.47,0-.84.17-1.11.52-.27.35-.41.89-.41,1.64s.13,1.29.4,1.64.63.52,1.1.52Z"/>
      <path d="m132.76,54c-.54,0-1.02-.09-1.43-.28-.41-.19-.73-.49-.97-.9-.24-.42-.35-.96-.35-1.63v-5.34h2.72v4.7c0,.51.1.87.3,1.07.2.2.49.3.86.3.19,0,.37-.03.54-.1.17-.07.32-.18.45-.32.13-.14.23-.33.3-.56s.1-.5.1-.81v-4.29h2.72v8h-2.43l-.08-1.5c-.26.57-.61.98-1.07,1.26s-1.01.41-1.66.41Z"/>
      <path d="m143.75,45.68c.81,0,1.49.11,2.02.34.54.23.96.53,1.26.91.3.38.49.79.57,1.22l-2.51.83c-.08-.46-.21-.8-.41-1.03s-.48-.34-.86-.34c-.34,0-.63.08-.86.23-.23.15-.4.4-.52.74s-.18.77-.18,1.29.06.95.19,1.27c.13.33.31.56.54.7.23.14.51.22.83.22.27,0,.49-.05.66-.15.18-.1.32-.25.44-.44.12-.19.19-.43.22-.7l2.45.78c-.07.47-.27.89-.6,1.26-.33.37-.75.66-1.29.87-.53.21-1.16.32-1.87.32-.88,0-1.64-.16-2.29-.49-.65-.33-1.15-.8-1.5-1.42-.35-.62-.53-1.37-.53-2.25s.18-1.62.53-2.25c.35-.62.85-1.1,1.48-1.42.63-.33,1.37-.49,2.2-.49Z"/>
      <path d="m154.76,45.84v1.94h-6.48v-1.94h6.48Zm-2.38-2.54v7.7c0,.38.09.66.28.82s.45.25.78.25c.26,0,.48-.03.66-.09s.35-.15.5-.26l.29,1.68c-.27.19-.6.34-1.01.45s-.82.16-1.25.16c-.61,0-1.13-.09-1.58-.26-.44-.17-.78-.44-1.02-.82-.24-.37-.37-.87-.38-1.49v-7.39l2.72-.75Z"/>
    </g>
    <g>
      <path class="cls-1" d="m110.59,136.6c-.2.74-.53,1.34-.98,1.82s-.98.82-1.6,1.04c-.62.22-1.3.33-2.05.33-1.07,0-1.99-.22-2.77-.65-.78-.43-1.38-1.05-1.79-1.86-.42-.81-.62-1.79-.62-2.93s.21-2.12.62-2.93,1.01-1.43,1.79-1.86c.78-.43,1.7-.65,2.75-.65.74,0,1.41.1,2.03.31.62.21,1.14.53,1.57.95.43.43.73.98.91,1.65l-2.42.98c-.15-.66-.39-1.11-.73-1.36-.34-.25-.76-.37-1.27-.37s-.94.12-1.3.37c-.37.25-.65.61-.85,1.1-.2.49-.3,1.09-.3,1.82s.09,1.32.27,1.81c.18.49.46.86.82,1.1.37.25.82.37,1.37.37.51,0,.95-.14,1.3-.42s.6-.72.73-1.3l2.5.7Z"/>
      <path class="cls-1" d="m114.62,128.23v8.67c0,.35.06.6.18.75s.31.22.59.22c.16,0,.29-.01.4-.03s.23-.05.38-.1l-.18,1.63c-.19.12-.44.21-.75.29-.31.07-.61.11-.91.11-.85,0-1.47-.2-1.86-.59-.38-.39-.58-1.04-.58-1.94v-9.02h2.72Z"/>
      <path class="cls-1" d="m118.53,130.69c-.55,0-.96-.1-1.21-.31s-.38-.54-.38-.98.12-.79.38-1,.65-.31,1.21-.31.94.1,1.2.31.38.54.38,1-.13.78-.38.98-.66.31-1.2.31Zm1.36.93v8h-2.72v-8h2.72Z"/>
      <path class="cls-1" d="m125.73,139.78c-.89,0-1.65-.17-2.3-.5s-1.14-.81-1.5-1.42c-.35-.62-.53-1.37-.53-2.24s.18-1.62.53-2.24c.35-.62.85-1.09,1.48-1.42.63-.33,1.36-.5,2.18-.5s1.56.16,2.15.49c.59.33,1.04.77,1.35,1.34.31.57.46,1.22.46,1.96,0,.19,0,.38-.02.58s-.03.35-.05.48h-6.34v-1.46h5.14l-1.3.5c0-.64-.12-1.13-.34-1.47-.23-.34-.58-.51-1.06-.51-.34,0-.63.08-.87.24-.24.16-.42.41-.54.75-.12.34-.18.78-.18,1.31s.07.95.21,1.27c.14.33.34.56.59.7s.57.22.93.22c.41,0,.73-.08.97-.24.24-.16.42-.38.54-.67l2.18.72c-.15.46-.41.85-.78,1.16-.37.31-.81.55-1.31.71s-1.04.24-1.59.24Z"/>
      <path class="cls-1" d="m131.08,139.62v-8h2.43l.14,2.75-.3-.3c.11-.58.3-1.06.57-1.44.27-.38.61-.67,1.02-.87.41-.2.87-.3,1.38-.3.55,0,1.04.11,1.45.32s.73.53.97.94.35.94.35,1.57v5.33h-2.72v-4.61c0-.55-.11-.94-.32-1.15-.21-.21-.49-.32-.82-.32-.26,0-.5.06-.72.18s-.4.32-.53.58-.19.62-.19,1.07v4.24h-2.72Z"/>
      <path class="cls-1" d="m146.69,131.62v1.94h-6.48v-1.94h6.48Zm-2.38-2.54v7.7c0,.38.09.66.28.82s.45.25.78.25c.26,0,.48-.03.66-.09s.35-.15.5-.26l.29,1.68c-.27.19-.6.34-1.01.45s-.82.16-1.25.16c-.61,0-1.13-.09-1.58-.26-.44-.17-.78-.44-1.02-.82-.24-.37-.37-.87-.38-1.49v-7.39l2.72-.75Z"/>
    </g>
    <g>
      <path d="m33.27,136.44c.83,1.43,1.06,2.76.71,3.98-.36,1.22-1.26,2.25-2.72,3.09-1.46.84-2.8,1.11-4.04.81-1.23-.3-2.26-1.17-3.09-2.6l-2.24-3.88,9.14-5.28,2.24,3.88Zm-7.48,4c.45.78,1.01,1.21,1.68,1.29.67.09,1.47-.13,2.38-.66.92-.53,1.5-1.11,1.76-1.73s.17-1.32-.28-2.1l-.73-1.26-5.54,3.2.73,1.26Z"/>
      <path d="m35.8,145.95l-6.93,4-1.36-2.36,6.93-4,1.36,2.36Zm.12-1.64c-.28-.48-.39-.88-.33-1.2.05-.32.28-.59.66-.82.4-.23.75-.29,1.05-.17s.6.41.88.89c.27.47.38.87.33,1.19-.05.33-.28.6-.67.83-.39.22-.74.28-1.04.16-.31-.12-.6-.41-.87-.88Z"/>
      <path d="m31.38,154.62c-.4-.69-.66-1.4-.78-2.13-.12-.73-.08-1.41.13-2.04l1.94.36c-.16.4-.23.85-.21,1.35.02.5.17.98.44,1.45.17.29.34.5.53.63s.37.16.55.05c.13-.08.21-.18.23-.32.02-.14-.01-.36-.12-.67l-.37-1.08c-.33-.97-.42-1.74-.29-2.3.14-.56.49-1.01,1.05-1.33.38-.22.81-.31,1.29-.28s.97.22,1.46.58c.49.36.96.91,1.39,1.65.41.7.66,1.38.77,2.03.11.65.06,1.25-.15,1.79l-1.92-.39c.15-.38.2-.79.16-1.24s-.17-.84-.37-1.19c-.13-.22-.26-.4-.39-.52-.13-.13-.25-.21-.37-.24-.12-.03-.23-.01-.34.05-.12.07-.19.19-.21.35-.02.17.03.42.14.78l.48,1.41c.28.79.34,1.43.18,1.95-.16.51-.48.91-.96,1.18-.45.26-.93.38-1.43.34-.5-.03-.99-.23-1.48-.59s-.94-.91-1.36-1.63Z"/>
      <path d="m44.91,156.64l-6.67,3.85c-.33.19-.52.41-.57.65s0,.51.17.8c.13.22.26.4.41.53.14.13.3.23.48.3l-1.31,1.09c-.3-.13-.6-.35-.89-.65-.29-.3-.55-.63-.76-1-.3-.53-.49-1.02-.57-1.49-.07-.47,0-.9.2-1.3.2-.39.57-.75,1.1-1.07l6.4-3.7,2.01,1.98Zm-1.01,3.34l-1.68.97-3.24-5.61,1.68-.97,3.24,5.61Z"/>
      <path d="m37.6,165.07l6.93-4,1.2,2.08-1.44.96c.62-.12,1.17-.09,1.66.09.49.18.88.54,1.19,1.08.1.17.17.33.22.47.04.14.06.26.06.36l-2.08.88c-.02-.11-.05-.25-.11-.41-.06-.16-.15-.34-.27-.54-.16-.28-.37-.5-.63-.67-.26-.17-.55-.26-.87-.27-.32,0-.66.09-1.02.3l-3.49,2.02-1.36-2.36Z"/>
      <path d="m49.33,169.39l-6.93,4-1.36-2.36,6.93-4,1.36,2.36Zm.12-1.64c-.28-.48-.39-.88-.33-1.2.05-.32.28-.59.66-.82.4-.23.75-.29,1.05-.17.31.11.6.41.88.89.27.47.38.87.33,1.2-.05.33-.28.6-.67.83-.39.22-.74.28-1.04.16-.31-.12-.6-.41-.87-.88Z"/>
      <path d="m45.8,179.59c-.26-.45-.39-.91-.39-1.38,0-.46.12-.91.35-1.34.23-.43.55-.8.96-1.13l.42.05-2.58,1.32-1.19-2.07,9.87-5.7,1.36,2.36-5.11,2.95.21-.41c.65-.2,1.27-.21,1.88-.03.6.18,1.1.61,1.49,1.28.31.54.44,1.1.4,1.68-.04.59-.27,1.15-.67,1.7-.4.55-.99,1.04-1.76,1.49-.75.43-1.46.68-2.13.75-.67.07-1.28-.03-1.8-.29s-.96-.68-1.29-1.25Zm1.26-1.82c.24.41.57.64,1,.7.43.06.97-.1,1.62-.47.65-.37,1.05-.76,1.22-1.17.17-.41.13-.81-.1-1.22-.15-.27-.36-.45-.62-.55s-.56-.12-.9-.06-.7.2-1.1.43c-.4.23-.71.47-.92.74-.22.26-.34.53-.37.81-.03.28.03.54.18.8Z"/>
      <path d="m49.6,186.17c-.27-.47-.43-.93-.47-1.38s.06-.88.3-1.29c.24-.41.66-.79,1.24-1.12l4.63-2.67,1.36,2.36-4.07,2.35c-.44.26-.7.52-.78.8-.08.28-.02.58.17.9.1.17.22.31.36.42.14.11.31.19.5.23.19.04.4.03.63-.02.23-.05.48-.16.75-.31l3.71-2.14,1.36,2.36-6.93,4-1.21-2.11,1.26-.82c-.62.06-1.16-.04-1.62-.3-.47-.26-.86-.67-1.19-1.24Z"/>
      <path d="m64.14,189.95l-6.66,3.85c-.33.19-.52.41-.57.65-.05.24,0,.51.17.8.13.22.26.4.41.53s.3.23.48.3l-1.31,1.09c-.3-.13-.6-.35-.89-.65s-.55-.63-.76-1c-.3-.53-.49-1.02-.57-1.49s0-.9.19-1.29.57-.75,1.1-1.07l6.4-3.7,2.01,1.98Zm-1.01,3.34l-1.68.97-3.24-5.61,1.68-.97,3.24,5.61Z"/>
      <path d="m65.12,196.74l-6.93,4-1.36-2.36,6.93-4,1.36,2.36Zm.12-1.64c-.28-.48-.39-.88-.33-1.2s.28-.59.66-.82c.4-.23.75-.29,1.05-.17s.6.41.87.89c.27.47.38.87.33,1.2-.05.33-.28.6-.67.83-.39.22-.74.28-1.04.16-.31-.12-.6-.41-.87-.88Z"/>
      <path d="m68.13,201.63c.42.73.65,1.45.68,2.16.04.71-.13,1.38-.49,2-.36.62-.92,1.15-1.68,1.59s-1.5.66-2.21.66c-.72,0-1.38-.19-1.98-.58s-1.11-.95-1.53-1.68c-.41-.71-.64-1.42-.67-2.14-.04-.72.12-1.39.48-2.01.36-.62.92-1.15,1.68-1.59.76-.44,1.5-.66,2.22-.66.72,0,1.38.19,1.98.58.6.39,1.11.94,1.52,1.65Zm-1.68.97c-.15-.27-.35-.46-.59-.58-.24-.12-.54-.15-.88-.08-.34.06-.74.23-1.2.49-.45.26-.79.52-1.01.79s-.35.53-.37.8c-.02.27.04.54.2.81.16.28.36.47.61.59.25.12.54.14.88.08.34-.06.74-.22,1.19-.48.45-.26.79-.53,1.02-.79.23-.27.35-.53.37-.8.02-.27-.05-.54-.21-.82Z"/>
      <path d="m63.95,210.71l6.93-4,1.22,2.11-2.31,1.5.11-.42c.55-.2,1.06-.27,1.53-.23.47.04.89.19,1.27.45.38.26.69.61.95,1.05.28.48.43.95.45,1.41.02.46-.09.9-.33,1.31-.24.41-.64.78-1.18,1.09l-4.62,2.66-1.36-2.36,3.99-2.3c.48-.28.76-.56.84-.85.08-.29.04-.58-.13-.87-.13-.22-.3-.4-.52-.53-.22-.13-.47-.19-.77-.17s-.64.15-1.02.37l-3.67,2.12-1.36-2.36Z"/>
    </g>
    <g>
      <path d="m184.18,195.36l9.14,5.28-1.22,2.11-4.2-2.42-2.77-1.69-.02.03,5.71,6.31-1.11,1.93-8.32-1.79-.02.03,2.85,1.55,4.2,2.42-1.22,2.12-9.15-5.28,1.96-3.39,5.49,1.25,2.24.61.02-.03-1.62-1.64-3.85-4.12,1.88-3.26Z"/>
      <path d="m192.22,192.41c-.32-.19-.63-.24-.93-.17-.29.07-.53.26-.71.56-.18.31-.25.61-.22.92.03.3.21.61.55.92l-1.62,1.72c-.59-.51-.92-1.16-1-1.95-.08-.78.17-1.68.76-2.69.39-.67.82-1.19,1.29-1.55.47-.36.98-.55,1.52-.58.54-.03,1.09.12,1.67.46l2.54,1.46c.36.21.63.15.82-.17.1-.17.15-.31.18-.43l1.26.91c-.03.35-.16.73-.39,1.12-.21.36-.45.65-.73.86-.28.21-.58.33-.9.35-.33.02-.67-.07-1.03-.28l-.08-.05.06-.32c.4.23.66.54.79.93.13.39.15.81.07,1.26-.09.45-.25.88-.48,1.28-.27.47-.58.84-.93,1.1-.35.27-.72.41-1.11.44-.39.03-.79-.08-1.21-.32-.5-.29-.83-.68-.98-1.17-.15-.49-.11-1.09.13-1.82l.97-2.93,1.24.73-.49,1.49c-.1.31-.14.56-.11.76.03.19.15.35.36.48.2.12.4.13.59.04.19-.09.34-.23.46-.44.09-.16.15-.32.19-.49.04-.17.04-.34,0-.5s-.1-.33-.21-.48c-.11-.15-.27-.28-.47-.4l-1.83-1.06Z"/>
      <path d="m199.01,190.79l-6.93-4,1.2-2.08,1.55.77c-.42-.47-.67-.97-.75-1.48-.09-.51.02-1.04.33-1.57.1-.17.2-.32.3-.43.1-.11.19-.19.28-.23l1.8,1.36c-.09.07-.19.17-.29.3-.11.13-.22.3-.33.5-.16.28-.25.57-.27.88-.02.31.05.6.2.88.15.28.41.52.77.73l3.49,2.02-1.36,2.36Z"/>
      <path d="m193.95,176.78l9.87,5.7-1.36,2.36-9.87-5.7,1.36-2.36Zm5.97-3.56l1.63,5.37-.13.52,1.07,3.26-2.42-1.38-1.66-5.15,1.51-2.62Zm.37,4.16l6.65-.32-1.5,2.6-4.65.05-.5-2.34Z"/>
      <path d="m209.3,173.29c-.44.77-.97,1.35-1.58,1.74-.61.39-1.27.59-1.98.58-.71,0-1.45-.23-2.2-.66s-1.32-.96-1.68-1.58c-.36-.61-.52-1.28-.49-1.99s.25-1.43.66-2.14c.42-.73.92-1.27,1.5-1.62.58-.35,1.19-.52,1.84-.5.65.02,1.29.21,1.93.58.17.1.33.2.49.3.16.11.29.2.39.28l-3.17,5.49-1.26-.73,2.57-4.45-.22,1.37c-.55-.32-1.04-.47-1.45-.44-.41.03-.74.25-.98.67-.17.3-.25.59-.23.87.02.29.15.57.38.85s.58.55,1.04.81c.45.26.85.41,1.21.46.35.04.65-.01.9-.16.25-.15.47-.38.65-.7.2-.35.29-.67.28-.96-.02-.29-.12-.55-.31-.8l1.71-1.52c.32.36.53.78.62,1.25.09.48.08.97-.04,1.49-.12.52-.31,1.02-.59,1.5Z"/>
      <path d="m204.34,160.48l6.67,3.85c.33.19.62.25.85.17s.44-.26.6-.55c.13-.22.21-.43.26-.62.04-.19.05-.38.02-.57l1.6.59c.03.33,0,.69-.12,1.1-.11.4-.27.79-.49,1.16-.3.53-.64.94-1.01,1.24-.37.3-.78.46-1.22.48-.44.02-.94-.12-1.48-.42l-6.4-3.7.71-2.73Zm3.4-.79l1.68.97-3.24,5.61-1.68-.97,3.24-5.61Z"/>
      <path d="m208.24,156.95c-.28.48-.57.78-.88.89-.3.11-.65.06-1.04-.17-.4-.23-.62-.5-.68-.83s.06-.72.33-1.2c.27-.47.56-.77.87-.88.31-.12.66-.06,1.06.17.39.22.61.5.66.82.05.33-.06.72-.33,1.2Zm1.48-.71l6.93,4-1.36,2.36-6.93-4,1.36-2.36Z"/>
      <path d="m217.62,158.56l-6.93-4,1.22-2.11,2.46,1.25-.42.11c-.45-.38-.77-.78-.96-1.21-.2-.43-.28-.87-.24-1.32.04-.46.18-.9.44-1.35.28-.48.61-.85,1-1.09s.82-.37,1.3-.37c.48,0,.99.16,1.53.48l4.62,2.66-1.36,2.35-3.99-2.3c-.48-.28-.87-.38-1.16-.3-.29.08-.52.26-.69.55-.13.22-.19.46-.2.71,0,.26.07.51.24.75.17.24.44.48.83.7l3.67,2.12-1.36,2.36Z"/>
      <path d="m217.31,142.78c.41-.7.85-1.25,1.32-1.64.47-.39.96-.62,1.46-.68.5-.06,1,.05,1.51.34.5.29.85.67,1.05,1.13.2.47.24,1,.14,1.6-.11.6-.36,1.26-.77,1.96-.63,1.1-1.32,1.81-2.05,2.15-.73.33-1.48.28-2.22-.15-.51-.29-.86-.67-1.05-1.13-.19-.46-.24-1-.14-1.6s.36-1.26.77-1.98Zm.36-4.59l1.69.72c-.05.05-.09.09-.13.15-.04.05-.07.11-.1.16-.23.41-.31.77-.23,1.08s.27.56.57.73l-.79.66c-.38-.22-.7-.5-.97-.84-.27-.34-.43-.72-.49-1.14-.05-.42.05-.85.3-1.29.02-.03.04-.06.06-.1.02-.04.05-.08.08-.11Zm.98,5.37c-.18.3-.23.6-.17.89.07.29.26.53.58.72.31.18.61.23.9.14s.51-.28.69-.59c.17-.3.22-.59.16-.89-.06-.29-.25-.53-.57-.71-.32-.19-.63-.23-.92-.14-.29.09-.52.29-.69.58Zm4.89,1.2c.46-.8.99-1.32,1.57-1.56.59-.24,1.19-.17,1.82.19.57.33.96.76,1.16,1.29.2.53.23,1.14.09,1.81-.14.68-.43,1.4-.88,2.18-.72,1.26-1.4,2.07-2.04,2.44-.63.37-1.22.4-1.75.1-.39-.22-.61-.56-.67-1.02-.06-.45.11-1.05.52-1.79l.19.18c-.4.52-.81.84-1.23.97-.42.13-.85.06-1.29-.19-.44-.26-.7-.64-.78-1.15-.07-.51.04-1.07.35-1.66l.9-.63-.13.22c-.19.37-.28.66-.26.87.02.21.1.35.25.44.16.09.31.09.46.01.15-.08.3-.25.45-.51l1.27-2.2Zm2.24,3.03c.26-.44.44-.83.55-1.15.11-.33.15-.59.13-.8-.02-.21-.1-.35-.24-.43s-.28-.09-.41-.04c-.14.06-.28.22-.44.49l-1.43,2.48c-.1.18-.14.34-.11.5.03.16.12.28.25.36.21.12.47.06.76-.19.3-.25.61-.65.93-1.22Z"/>
    </g>
  </g>
</svg>