<?xml version="1.0" encoding="UTF-8"?>
<svg id="Layer_2" data-name="Layer 2" xmlns="http://www.w3.org/2000/svg" viewBox="0 0 320.3 304.63">
  <defs>
    <style>
      .cls-1 {
        opacity: .33;
      }

      .cls-1, .cls-2 {
        fill: #df3c2f;
      }

      .cls-1, .cls-2, .cls-3 {
        stroke: #6c757d;
        stroke-miterlimit: 10;
      }

      .cls-3 {
        fill: none;
      }
    </style>
  </defs>
  <g id="Layer_1-2" data-name="Layer 1">
    <g>
      <path class="cls-3" d="m319.8,202.92c0,55.9-45.31,101.21-101.21,101.21-21.77,0-41.93-6.87-58.43-18.56,25.88-18.34,42.77-48.52,42.77-82.65,0-3.13-.14-6.22-.43-9.27,32.09-14.79,55.11-45.89,58.44-82.67,34.75,16.02,58.86,51.16,58.86,91.94Z"/>
      <path class="cls-1" d="m260.94,110.98c-3.33,36.78-26.35,67.88-58.44,82.67-2.74-30.29-18.83-56.72-42.34-73.38,16.5-11.69,36.66-18.56,58.43-18.56,15.12,0,29.47,3.32,42.35,9.27Z"/>
      <path class="cls-3" d="m261.37,101.71c0,3.13-.14,6.22-.43,9.27-12.88-5.95-27.23-9.27-42.35-9.27-21.77,0-41.93,6.87-58.43,18.56-16.51-11.69-36.67-18.56-58.44-18.56-15.12,0-29.47,3.32-42.35,9.26-.29-3.05-.43-6.14-.43-9.26C58.94,45.81,104.25.5,160.15.5s101.22,45.31,101.22,101.21Z"/>
      <path class="cls-1" d="m160.16,120.27c-23.52,16.65-39.62,43.09-42.36,73.38-32.09-14.79-55.11-45.89-58.43-82.68,12.88-5.94,27.23-9.26,42.35-9.26,21.77,0,41.93,6.87,58.44,18.56Z"/>
      <path class="cls-2" d="m202.5,193.65c-12.88,5.95-27.23,9.27-42.35,9.27s-29.47-3.32-42.35-9.27c2.74-30.29,18.84-56.73,42.36-73.38,23.51,16.66,39.6,43.09,42.34,73.38Z"/>
      <path class="cls-1" d="m202.93,202.92c0,34.13-16.89,64.31-42.77,82.65-25.89-18.33-42.79-48.52-42.79-82.65,0-3.13.14-6.22.43-9.27,12.88,5.95,27.23,9.27,42.35,9.27s29.47-3.32,42.35-9.27c.29,3.05.43,6.14.43,9.27Z"/>
      <path class="cls-3" d="m160.16,285.57c-16.51,11.69-36.67,18.56-58.44,18.56C45.82,304.13.5,258.82.5,202.92c0-40.78,24.12-75.92,58.87-91.95,3.32,36.79,26.34,67.89,58.43,82.68-.29,3.05-.43,6.14-.43,9.27,0,34.13,16.9,64.32,42.79,82.65Z"/>
    </g>
  </g>
</svg>