<?xml version="1.0" encoding="UTF-8"?>
<svg id="Layer_2" data-name="Layer 2" xmlns="http://www.w3.org/2000/svg" viewBox="0 0 354.78 320.63">
  <defs>
    <style>
      .cls-1 {
        fill: #f9d8d5;
      }

      .cls-1, .cls-2, .cls-3 {
        stroke: #fff;
        stroke-miterlimit: 10;
      }

      .cls-2 {
        fill: none;
      }

      .cls-3 {
        fill: #ec8a82;
      }
    </style>
  </defs>
  <g id="Layer_1-2" data-name="Layer 1">
    <g>
      <path class="cls-2" d="m354.28,214.69c0,58.23-47.2,105.44-105.43,105.44-27.57,0-52.67-10.59-71.45-27.91,20.9-19.27,33.99-46.88,33.99-77.54,0-2.95-.12-5.87-.36-8.77,39.1-13.12,67.98-48.57,71.5-91.19,41.71,14.05,71.76,53.5,71.76,99.96Z"/>
      <path class="cls-3" d="m282.52,114.73c-3.52,42.62-32.39,78.07-71.5,91.19-2.23-27.13-14.74-51.36-33.62-68.77,18.78-17.31,43.88-27.91,71.45-27.91,11.77,0,23.1,1.93,33.67,5.48Z"/>
      <path class="cls-2" d="m282.88,105.94c0,2.96-.12,5.89-.36,8.79-10.57-3.55-21.89-5.48-33.67-5.48-27.57,0-52.67,10.59-71.45,27.91-18.78-17.31-43.88-27.91-71.45-27.91-11.74,0-23.03,1.91-33.57,5.46-.24-2.9-.36-5.82-.36-8.77C72.01,47.71,119.21.5,177.44.5s105.44,47.21,105.44,105.44Z"/>
      <path class="cls-1" d="m211.02,205.92c-10.55,3.54-21.84,5.46-33.58,5.46s-23.1-1.93-33.67-5.49c2.23-27.12,14.75-51.33,33.62-68.73,18.88,17.41,31.39,41.64,33.62,68.77Z"/>
      <path class="cls-3" d="m177.4,137.15c-18.87,17.4-31.39,41.61-33.62,68.73-39.07-13.16-67.89-48.58-71.4-91.18,10.54-3.55,21.82-5.46,33.57-5.46,27.57,0,52.67,10.59,71.45,27.91Z"/>
      <path class="cls-3" d="m211.38,214.69c0,30.66-13.09,58.26-33.99,77.54-20.9-19.27-33.99-46.88-33.99-77.54,0-2.96.12-5.89.36-8.8,10.57,3.56,21.89,5.49,33.67,5.49s23.03-1.92,33.58-5.46c.24,2.9.36,5.82.36,8.77Z"/>
      <path class="cls-2" d="m177.4,292.22c-18.78,17.31-43.88,27.91-71.45,27.91C47.71,320.13.5,272.92.5,214.69c0-46.5,30.09-85.97,71.87-99.98,3.5,42.6,32.33,78.02,71.4,91.18-.24,2.91-.36,5.84-.36,8.8,0,30.66,13.09,58.26,33.99,77.54Z"/>
    </g>
  </g>
</svg>