<?xml version="1.0" encoding="UTF-8"?>
<svg id="Layer_2" data-name="Layer 2" xmlns="http://www.w3.org/2000/svg" viewBox="0 0 69.39 90.11">
  <defs>
    <style>
      .cls-1 {
        opacity: .33;
      }

      .cls-1, .cls-2, .cls-3 {
        fill: #df3c2f;
      }

      .cls-3, .cls-4 {
        stroke: #000;
        stroke-miterlimit: 10;
        stroke-width: .29px;
      }

      .cls-4 {
        fill: none;
      }
    </style>
  </defs>
  <g id="Layer_1-2" data-name="Layer 1">
    <g>
      <g>
        <path class="cls-3" d="m43.86,41.95c-2.79,1.28-5.89,2-9.16,2s-6.38-.72-9.16-2c.59-6.56,4.07-12.28,9.16-15.88,5.09,3.6,8.57,9.32,9.16,15.88Z"/>
        <path class="cls-4" d="m69.24,43.95c0,12.1-9.81,21.9-21.9,21.9-4.71,0-9.07-1.49-12.64-4.02,5.6-3.97,9.26-10.5,9.26-17.88,0-.67-.03-1.34-.09-2,6.94-3.2,11.93-9.93,12.64-17.9,7.52,3.47,12.74,11.07,12.74,19.9Z"/>
        <path class="cls-1" d="m56.5,24.05c-.72,7.96-5.7,14.69-12.64,17.9-.59-6.56-4.07-12.28-9.16-15.88,3.57-2.53,7.93-4.02,12.64-4.02,3.27,0,6.38.72,9.16,2Z"/>
        <path class="cls-4" d="m56.6,22.05c0,.67-.03,1.34-.09,2-2.79-1.28-5.89-2-9.16-2-4.71,0-9.07,1.49-12.64,4.02-3.57-2.53-7.93-4.02-12.64-4.02-3.27,0-6.38.72-9.16,2-.06-.66-.09-1.33-.09-2C12.79,9.95,22.6.15,34.69.15s21.9,9.81,21.9,21.9Z"/>
        <path class="cls-1" d="m34.69,26.07c-5.09,3.6-8.57,9.32-9.16,15.88-6.94-3.2-11.93-9.93-12.65-17.9,2.79-1.28,5.89-2,9.16-2,4.71,0,9.07,1.49,12.64,4.02Z"/>
        <path class="cls-1" d="m43.95,43.95c0,7.39-3.66,13.92-9.26,17.88-5.6-3.97-9.26-10.5-9.26-17.88,0-.67.03-1.34.09-2,2.79,1.28,5.89,2,9.16,2s6.38-.72,9.16-2c.06.66.09,1.33.09,2Z"/>
        <path class="cls-4" d="m34.69,61.83c-3.57,2.53-7.93,4.02-12.64,4.02C9.95,65.85.15,56.05.15,43.95c0-8.83,5.22-16.43,12.74-19.9.72,7.96,5.7,14.69,12.65,17.9-.06.66-.09,1.33-.09,2,0,7.39,3.66,13.92,9.26,17.88Z"/>
      </g>
      <g>
        <path d="m7.13,77.57h3.49v3.81h-3.1v8.48H1.87v-8.48H.22v-3.81h1.65v-.49c0-.95.16-1.74.48-2.37.32-.64.75-1.14,1.29-1.52.54-.37,1.13-.64,1.78-.8.65-.15,1.29-.23,1.93-.23.82,0,1.53.08,2.14.25.61.16,1.04.33,1.3.51l-.37,3.27c-.16-.08-.36-.16-.59-.23-.23-.07-.53-.11-.91-.11-.5,0-.93.1-1.27.31-.35.2-.52.61-.52,1.21v.2Z"/>
        <path class="cls-2" d="m29.27,73.64l-5.48,16.22h-6.81l-5.48-16.22h5.97l2.24,8.87.79,3.17.74-3.12,2.29-8.92h5.75Z"/>
        <path class="cls-2" d="m39.8,80.17c-.51-.9-1.25-1.6-2.23-2.1-.97-.5-2.16-.75-3.55-.75s-2.55.25-3.58.75c-1.02.5-1.81,1.23-2.38,2.18-.57.95-.85,2.1-.85,3.46s.28,2.52.84,3.47c.55.95,1.36,1.68,2.41,2.18,1.05.5,2.31.75,3.78.75.92,0,1.81-.14,2.67-.4.86-.26,1.6-.66,2.22-1.19.63-.53,1.03-1.2,1.21-2l-4.55-1.23c-.08.33-.24.58-.48.77s-.57.28-.99.28-.72-.06-.98-.18c-.25-.12-.44-.37-.57-.74-.06-.17-.11-.38-.14-.62h7.81c.03-.17.06-.39.08-.67.03-.28.04-.55.04-.81,0-1.19-.25-2.24-.76-3.15Zm-7.17,2.54c.02-.21.05-.4.09-.56.1-.4.26-.68.48-.84.22-.17.5-.25.85-.25.52,0,.86.23,1.02.69.08.26.14.58.18.96h-2.62Z"/>
        <path class="cls-2" d="m54.55,81.45v8.41h-5.66v-7.01c0-.52-.07-.88-.22-1.07-.15-.18-.37-.28-.66-.28-.26,0-.48.06-.65.19-.18.12-.3.32-.38.6-.09.28-.13.64-.13,1.08v6.49h-5.65v-12.29h5.09l.12,2.7c.09-.25.2-.49.32-.71.39-.72.92-1.27,1.58-1.66.67-.38,1.46-.58,2.38-.58.82,0,1.51.16,2.09.48.57.32,1.01.79,1.31,1.4.3.62.46,1.37.46,2.25Z"/>
        <path class="cls-2" d="m69.05,81.45v8.41h-5.66v-7.01c0-.52-.07-.88-.22-1.07-.14-.18-.37-.28-.66-.28-.26,0-.48.06-.65.19-.17.12-.3.32-.38.6s-.13.64-.13,1.08v6.49h-5.65v-12.29h5.09l.12,2.7c.09-.25.2-.49.32-.71.4-.72.92-1.27,1.59-1.66.66-.38,1.45-.58,2.37-.58.82,0,1.51.16,2.09.48.57.32,1.01.79,1.31,1.4.31.62.46,1.37.46,2.25Z"/>
      </g>
    </g>
  </g>
</svg>